# xmcd
#
# Track frame offsets: 
#        150
#        18812
#        47687
#        62462
#        79112
#        93587
#        113987
#        144137
#        157937
#        174512
#        196712
#        213437
#
# Disc length: 3070 seconds
#
# Revision: 3
# Processed by: cddbd v1.5.2PL0 Copyright (c) Steve Scherf et al.
# Submitted via: ExactAudioCopy v0.99pb5
#
DISCID=8d0bfc0c
DTITLE=Paul Millns - Finally Falls The Rain (feat. Olaf Kübler)
DYEAR=1984
DGENRE=Blues
TTITLE0=Down in the danger Zone
TTITLE1=Finally falls the Rain
TTITLE2=Charly
TTITLE3=God bless the child
TTITLE4=Money makes them run
TTITLE5=Two
TTITLE6=Yesterday's Hero
TTITLE7=The Glory of Love
TTITLE8=Don't turn out the Light
TTITLE9=The Strories I could tell
TTITLE10=Bring it on Home to me
TTITLE11=Salvador
EXTD=
EXTT0=
EXTT1=
EXTT2=
EXTT3=
EXTT4=
EXTT5=
EXTT6=
EXTT7=
EXTT8=
EXTT9=
EXTT10=
EXTT11=
PLAYORDER=
